<?xml version="1.0" encoding="utf-8"?>
<!-- Generator: Adobe Illustrator 27.5.0, SVG Export Plug-In . SVG Version: 6.00 Build 0)  -->
<svg version="1.1" xmlns="http://www.w3.org/2000/svg" xmlns:xlink="http://www.w3.org/1999/xlink" x="0px" y="0px"
	 viewBox="0 0 500 500" style="enable-background:new 0 0 500 500;" xml:space="preserve">
<g id="Floor">
	<ellipse id="Floor_8_" style="fill:#FAFAFA;" cx="253.55" cy="359.485" rx="238.679" ry="122.19"/>
</g>
<g id="Shadows">
	<ellipse id="Shadow_2_" style="fill:#E0E0E0;" cx="389.625" cy="398.202" rx="65.03" ry="40.166"/>
	<path id="Shadow_11_" style="fill:#E0E0E0;" d="M235.248,326.124l-41.667-24.057c-1.235-0.713-3.237-0.713-4.471,0L50.977,381.819
		c-1.235,0.713-1.235,1.869,0,2.581l41.666,24.056c1.235,0.713,3.236,0.713,4.471,0l12.306-7.105l113.512-65.384l12.326-7.244
		C236.487,328,236.483,326.837,235.248,326.124z"/>
</g>
<g id="Plants">
	<g id="Plants_3_">
		<g id="XMLID_3655_">
			<g>
				<path id="XMLID_3717_" style="fill:#27DEBF;" d="M422.566,383.264l-6.44-3.419c0,0,0.638-31.443,7.157-55.798
					c6.672-24.926,26.116-52.47,44.489-42.15c18.373,10.32-14.284,31.534-24.099,52.011
					C433.858,354.384,422.566,383.264,422.566,383.264z"/>
				<path id="XMLID_263_" style="opacity:0.15;" d="M422.566,383.264l-6.44-3.419c0,0,0.638-31.443,7.157-55.798
					c6.672-24.926,26.116-52.47,44.489-42.15c18.373,10.32-14.284,31.534-24.099,52.011
					C433.858,354.384,422.566,383.264,422.566,383.264z"/>
			</g>
			<g>
				<path style="fill:#FFFFFF;" d="M421.719,375.796c-0.006,0-0.012,0-0.019-0.001c-0.358-0.01-0.642-0.309-0.631-0.668
					c1.384-48.785,22.715-78.572,40.56-89.256c0.309-0.186,0.707-0.083,0.892,0.224c0.185,0.309,0.084,0.707-0.224,0.892
					c-17.564,10.515-38.56,39.918-39.93,88.178C422.358,375.517,422.069,375.796,421.719,375.796z"/>
			</g>
		</g>
		<g id="XMLID_1310_">
			<path id="XMLID_3640_" style="fill:#27DEBF;" d="M425.484,384.764l-5.752-2.957c0,0,0.705-15.432,12.536-35.56
				c10.505-17.871,31.778-31.871,40.726-26.879c6.933,3.867,8.533,12.324,1.882,17.949
				C468.301,342.878,437.533,354.759,425.484,384.764z"/>
			<path id="XMLID_3598_" style="fill:#FFFFFF;" d="M423.169,379.833c1.012,0.197,1.349-2.271,1.552-2.906
				c0.375-1.175,0.783-2.34,1.223-3.493c0.86-2.258,1.84-4.469,2.927-6.627c2.088-4.146,4.57-8.089,7.347-11.806
				c2.601-3.482,5.462-6.767,8.516-9.858c2.752-2.785,5.662-5.414,8.696-7.888c2.545-2.075,5.178-4.042,7.888-5.896
				c1.988-1.359,4.017-2.659,6.092-3.882c1.087-0.641,2.186-1.267,3.307-1.847c0.106-0.055,0.212-0.11,0.319-0.162
				c0.371-0.182,0.525-0.63,0.342-1.002c-0.18-0.369-0.626-0.527-1.002-0.342c-0.69,0.339-1.364,0.716-2.035,1.092
				c-1.757,0.986-3.479,2.034-5.172,3.125c-2.511,1.618-4.958,3.333-7.339,5.137c-2.955,2.239-5.807,4.616-8.534,7.129
				c-3.097,2.855-6.034,5.887-8.758,9.1c-2.945,3.474-5.644,7.16-8.012,11.052c-2.504,4.115-4.635,8.46-6.294,12.983
				c-0.317,0.865-0.617,1.735-0.899,2.612c-0.254,0.789-0.86,1.929-0.756,2.753c0.038,0.304,0.22,0.611,0.512,0.705
				C423.117,379.821,423.143,379.828,423.169,379.833z"/>
		</g>
	</g>
	<g id="Plants_12_">
		<g id="XMLID_1313_">
			<g id="XMLID_1352_">
				<path id="XMLID_1356_" style="fill:#27DEBF;" d="M96.841,355.836c0,0,0.192-19.605-7.552-35.806
					c-7.745-16.201-19.773-27.21-31.954-29.721c-12.181-2.51-23.515,7.592-11.314,17.024c12.201,9.432,34.605,20.299,41.772,50.775
					L96.841,355.836z"/>
				<path id="XMLID_1354_" style="opacity:0.15;" d="M96.841,355.836c0,0,0.192-19.605-7.552-35.806
					c-7.745-16.201-19.773-27.21-31.954-29.721c-12.181-2.51-23.515,7.592-11.314,17.024c12.201,9.432,34.605,20.299,41.772,50.775
					L96.841,355.836z"/>
			</g>
			<g>
				<path style="fill:#FFFFFF;" d="M91.737,352.447c-0.263,0-0.483-0.205-0.499-0.47c-1.881-31.387-27.738-51.794-40.514-55.277
					c-0.267-0.072-0.423-0.348-0.351-0.614c0.072-0.265,0.347-0.421,0.614-0.351c13.009,3.548,39.338,24.296,41.248,56.182
					c0.017,0.276-0.193,0.513-0.469,0.529C91.757,352.447,91.747,352.447,91.737,352.447z"/>
			</g>
		</g>
		<g id="XMLID_599_">
			<g id="XMLID_1163_">
				<g id="XMLID_1311_">
					<path id="XMLID_1312_" style="fill:#27DEBF;" d="M98.418,382.758c1.292-1.635,2.375-3.434,3.202-5.347
						c2.322-5.371,2.602-11.597,0.772-17.155c-0.739-2.244-1.827-4.411-3.357-6.223c-1.223-1.448-2.978-2.202-4.435-3.411
						c-3.102-2.576-6.705-5.297-7.825-9.376c-0.892-3.253-0.705-6.336-2.502-9.383c-1.099-1.864-2.743-3.466-4.78-4.197
						c-2.653-0.952-5.571-0.343-8.372-0.029c-4.032,0.452-7.005-0.922-10.461-2.761c-3.81-2.028-8.256-3.581-12.395-2.355
						c-2.677,0.793-4.983,2.762-6.185,5.283c-1.202,2.52-1.282,5.552-0.214,8.132c0.927,2.239,2.628,4.059,3.871,6.14
						c1.215,2.032,1.914,4.461,0.973,6.73c-0.698,1.682-1.949,2.965-2.524,4.707c-1.482,4.485-0.655,8.512,3.816,10.809
						c4.667,2.397,12.033,0.592,14.342,6.466c0.877,2.232,0.909,4.694,1.386,7.044c0.95,4.681,3.765,8.957,7.689,11.681
						c5.372,3.728,12.661,2.82,18.233,0.219C93.067,388.133,96.083,385.713,98.418,382.758z"/>
				</g>
			</g>
			<g id="XMLID_1141_">
				<path id="XMLID_1147_" style="fill:#FFFFFF;" d="M56.324,354.358c0.105,0.017,0.216,0.004,0.319-0.045
					c0.111-0.053,11.326-5.233,24.312,1.756c0.263,0.137,0.589,0.043,0.73-0.22c0.141-0.263,0.042-0.591-0.219-0.732
					c-13.488-7.256-25.167-1.835-25.284-1.78c-0.269,0.128-0.382,0.45-0.255,0.72C56.005,354.222,56.156,354.33,56.324,354.358z"/>
			</g>
			<g>
				<path style="fill:#FFFFFF;" d="M91.244,382.93c-0.275,0.006-0.504-0.209-0.515-0.483c-0.928-22.598-23.617-46.498-38.829-53.024
					c-0.257-0.11-0.375-0.406-0.265-0.662c0.11-0.257,0.407-0.372,0.662-0.265c15.451,6.629,38.496,30.924,39.44,53.909
					c0.011,0.279-0.205,0.514-0.483,0.525C91.25,382.93,91.247,382.93,91.244,382.93z"/>
			</g>
		</g>
	</g>
</g>
<g id="Device">
	<g id="Mobile_1_">
		<g>
			<path id="XMLID_553_" style="fill:#455A64;" d="M216.482,59.968l-113.186,65.348c-2.107,1.224-3.823,4.194-3.823,6.633v266.578
				c0,2.438,1.716,3.432,3.823,2.208l113.186-65.348c2.107-1.224,3.823-4.194,3.823-6.632V62.176
				C220.305,59.738,218.589,58.744,216.482,59.968z M214.796,309.021c0,2.087-1.465,3.417-3.281,4.461l-103.633,59.839
				c-1.806,1.044-3.281,0.201-3.281-1.897v-221.65l0,0c0-2.334,1.245-4.491,3.266-5.659l103.645-59.869
				c1.459-0.843,3.284,0.21,3.284,1.896l0,0V309.021z"/>
		</g>
		<g>
			<path id="XMLID_509_" style="fill:#263238;" d="M214.796,309.021c0,2.087-1.465,3.417-3.281,4.461l-103.633,59.839
				c-1.806,1.044-3.281,0.201-3.281-1.897v-221.65l0,0c0-2.334,1.245-4.491,3.266-5.659l103.645-59.869
				c1.459-0.843,3.284,0.21,3.284,1.896l0,0V309.021z"/>
		</g>
		<g>
			<path style="fill:#37474F;" d="M107.882,373.321l103.633-59.839c0.739-0.425,1.413-0.901,1.961-1.453l-108.875-61.334v120.729
				C104.601,373.522,106.076,374.365,107.882,373.321z"/>
		</g>
		<path style="fill:#27DEBF;" d="M206.408,305.111V87.195l-98.54,56.921c-2.021,1.167-3.266,3.324-3.266,5.659v216.688l98.525-56.89
			C204.943,308.529,206.408,307.198,206.408,305.111z"/>
		<g>
			<path id="XMLID_496_" style="fill:#263238;" d="M102.82,400.975c-2.123,0.976-5.212,0.891-7.183-0.237l-4.378-2.53
				c-2.123-1.223-3.838-4.179-3.838-6.633V125.013c0-0.928,0.246-1.914,0.663-2.862c0.133-0.313,0.284-0.616,0.455-0.919
				c0.01,0,0.01-0.009,0.01-0.009l12.044,6.955h0.009c-0.256,0.455-0.483,0.929-0.663,1.402c-0.294,0.796-0.464,1.611-0.464,2.369
				v266.581C99.475,400.776,100.934,401.8,102.82,400.975z"/>
		</g>
		<path id="XMLID_283_" style="fill:#27DEBF;" d="M163.267,347.299L163.267,347.299c2.451,0,2.715,2.748,2.715,3.93
			c0,4.274-3.127,9.689-6.827,11.826c-0.947,0.547-1.861,0.836-2.643,0.836c-2.451,0-2.716-2.748-2.716-3.93
			c0-4.274,3.127-9.689,6.828-11.826C161.571,347.588,162.485,347.299,163.267,347.299"/>
		<g id="XMLID_266_">
			<path id="XMLID_278_" style="fill:#263238;" d="M159.805,96.905c1.033-0.596,1.871-0.113,1.871,1.08
				c0,1.193-0.838,2.644-1.871,3.24c-1.033,0.596-1.871,0.113-1.871-1.08C157.934,98.952,158.772,97.502,159.805,96.905z"/>
			<g>
				<path id="XMLID_272_" style="fill:#263238;" d="M147.729,112.701c0.916-0.529,1.66-0.1,1.66,0.958
					c0,1.058-0.743,2.345-1.66,2.874c-0.917,0.529-1.66,0.1-1.66-0.958C146.069,114.517,146.812,113.23,147.729,112.701z"/>
				<path id="XMLID_271_" style="fill:#263238;" d="M153.283,109.417l18.583-10.729c1.018-0.588,1.844-0.17,1.844,0.933
					c0,1.103-0.825,2.474-1.844,3.062l-18.584,10.729c-1.018,0.588-1.844,0.17-1.843-0.933
					C151.439,111.376,152.264,110.005,153.283,109.417z"/>
			</g>
		</g>
		<g>
			<path id="XMLID_262_" style="fill:#37474F;" d="M220.268,61.569c-0.275-1.99-1.867-2.71-3.781-1.602l-113.193,65.349
				c-1.052,0.606-2.009,1.658-2.701,2.862l-12.044-6.955c0.701-1.204,1.649-2.236,2.71-2.843l113.174-65.359
				c2.104-1.222,5.534-1.222,7.657,0l4.397,2.521C218.42,56.669,220.021,59.256,220.268,61.569z"/>
		</g>
		<g id="Device_5_">
			<g id="Mobile_7_">
				<g>
					<path style="fill:#27DEBF;" d="M190.581,69.664c-1.093,0.631-2.809,0.662-3.834,0.071c-0.495-0.286-0.734-0.664-0.727-1.049
						c0.005-0.272-0.011-1.32-0.006-1.604c0.007-0.411,0.293-0.83,0.855-1.155l12.134-7.005c1.093-0.631,2.809-0.663,3.834-0.071
						c0.472,0.273,0.712,0.629,0.726,0.997c0.011,0.289,0.011,1.37,0.007,1.653c-0.005,0.412-0.292,0.833-0.855,1.157
						L190.581,69.664z"/>
					<path style="opacity:0.25;" d="M190.581,69.664c-1.093,0.631-2.809,0.662-3.834,0.071c-0.495-0.286-0.734-0.664-0.727-1.049
						c0.005-0.272-0.011-1.32-0.006-1.604c0.007-0.411,0.293-0.83,0.855-1.155l12.134-7.005c1.093-0.631,2.809-0.663,3.834-0.071
						c0.472,0.273,0.712,0.629,0.726,0.997c0.011,0.289,0.011,1.37,0.007,1.653c-0.005,0.412-0.292,0.833-0.855,1.157
						L190.581,69.664z"/>
					<path style="fill:#27DEBF;" d="M190.58,68.07l12.134-7.005c1.093-0.631,1.147-1.622,0.122-2.214
						c-1.025-0.592-2.742-0.56-3.834,0.071l-12.134,7.005c-1.093,0.631-1.148,1.622-0.122,2.214
						C187.771,68.733,189.488,68.701,190.58,68.07z"/>
					<path style="opacity:0.3;" d="M190.58,68.07l12.134-7.005c1.093-0.631,1.147-1.622,0.122-2.214
						c-1.025-0.592-2.742-0.56-3.834,0.071l-12.134,7.005c-1.093,0.631-1.148,1.622-0.122,2.214
						C187.771,68.733,189.488,68.701,190.58,68.07z"/>
				</g>
			</g>
		</g>
		<g id="Device_3_">
			<g id="Mobile_6_">
				<g>
					<path style="fill:#27DEBF;" d="M95.001,165.173c0-1.262-0.831-2.764-1.856-3.356c-0.495-0.286-0.941-0.304-1.272-0.105
						c-0.233,0.14-1.149,0.65-1.392,0.796c-0.353,0.212-0.573,0.669-0.573,1.318l0,29.72c0,1.262,0.831,2.764,1.856,3.356
						c0.472,0.273,0.901,0.302,1.226,0.13c0.256-0.135,1.192-0.676,1.435-0.82c0.354-0.211,0.575-0.669,0.575-1.319L95.001,165.173z
						"/>
					<path style="opacity:0.3;" d="M95.001,165.173c0-1.262-0.831-2.764-1.856-3.356c-0.495-0.286-0.941-0.304-1.272-0.105
						c-0.233,0.14-1.149,0.65-1.392,0.796c-0.353,0.212-0.573,0.669-0.573,1.318l0,29.72c0,1.262,0.831,2.764,1.856,3.356
						c0.472,0.273,0.901,0.302,1.226,0.13c0.256-0.135,1.192-0.676,1.435-0.82c0.354-0.211,0.575-0.669,0.575-1.319L95.001,165.173z
						"/>
					<path style="fill:#27DEBF;" d="M93.62,165.969l0,29.72c0,1.262-0.831,1.805-1.856,1.213c-1.025-0.592-1.856-2.094-1.856-3.356
						l0-29.72c0-1.262,0.831-1.805,1.856-1.213C92.789,163.205,93.62,164.707,93.62,165.969z"/>
					<path style="opacity:0.4;" d="M93.62,165.969l0,29.72c0,1.262-0.831,1.805-1.856,1.213c-1.025-0.592-1.856-2.094-1.856-3.356
						l0-29.72c0-1.262,0.831-1.805,1.856-1.213C92.789,163.205,93.62,164.707,93.62,165.969z"/>
				</g>
				<g>
					<path style="fill:#27DEBF;" d="M95.001,204.954c0-1.262-0.831-2.764-1.856-3.356c-0.495-0.286-0.941-0.304-1.272-0.105
						c-0.233,0.14-1.149,0.65-1.392,0.796c-0.353,0.212-0.573,0.669-0.573,1.318l0,14.011c0,1.262,0.831,2.764,1.856,3.356
						c0.472,0.273,0.901,0.302,1.226,0.131c0.256-0.135,1.192-0.676,1.435-0.82c0.354-0.211,0.575-0.669,0.575-1.319L95.001,204.954
						z"/>
					<path style="opacity:0.3;" d="M95.001,204.954c0-1.262-0.831-2.764-1.856-3.356c-0.495-0.286-0.941-0.304-1.272-0.105
						c-0.233,0.14-1.149,0.65-1.392,0.796c-0.353,0.212-0.573,0.669-0.573,1.318l0,14.011c0,1.262,0.831,2.764,1.856,3.356
						c0.472,0.273,0.901,0.302,1.226,0.131c0.256-0.135,1.192-0.676,1.435-0.82c0.354-0.211,0.575-0.669,0.575-1.319L95.001,204.954
						z"/>
					<path style="fill:#27DEBF;" d="M93.62,205.751l0,14.011c0,1.262-0.831,1.805-1.856,1.213c-1.025-0.592-1.856-2.094-1.856-3.356
						l0-14.011c0-1.262,0.831-1.805,1.856-1.213C92.789,202.986,93.62,204.489,93.62,205.751z"/>
					<path style="opacity:0.4;" d="M93.62,205.751l0,14.011c0,1.262-0.831,1.805-1.856,1.213c-1.025-0.592-1.856-2.094-1.856-3.356
						l0-14.011c0-1.262,0.831-1.805,1.856-1.213C92.789,202.986,93.62,204.489,93.62,205.751z"/>
				</g>
			</g>
		</g>
	</g>
	<g id="Doctor">
		<path style="fill:#263238;" d="M128.139,180.188c0.097,0.486,0.231,0.965,0.404,1.432c0.651,1.757,1.817,3.425,1.72,5.296
			c-0.11,2.12-1.784,3.764-3.066,5.455c-3.354,4.425-4.379,10.52-2.657,15.798c1.067,3.271,3.077,6.139,5.06,8.952
			c1.609,2.283,3.219,4.565,4.827,6.849c1.406,1.997,3.351,3.379,5.465,4.607c4.111,2.389,8.809,3.714,13.541,4.047
			c7.755,0.547,15.672-1.532,22.158-5.818c6.951-4.593,3.885-16.398,11.015-20.708c8.604-5.201,12.707-23.26,2.164-30.798
			c0,0,1.705-11.059-1.423-13.882c-2.997-2.705-7.029-4.039-11.044-4.456c-5.585-0.579-11.171,0.51-16.744,0.488
			c-5.73-0.023-11.461,0.335-17.143,1.073c-2.04,0.265-4.828,0.96-5.905,2.949c-0.455,0.84-0.233,1.493-0.244,2.409
			c-0.016,1.297-0.465,2.51-1.295,3.512c-1.242,1.499-2.98,2.505-4.318,3.917C128.452,173.632,127.518,177.061,128.139,180.188z"/>
		<path style="fill:#E6E6E6;" d="M183.636,196.147c8.964,0.254,10.17,2.174,18.233,10.151c6.702,6.631,28.905,27.124,28.905,27.124
			l26.598,7.076l-6.278,16.234c0,0-6.019-0.255-18.015-0.259c-7.371-0.002-9.928-1.656-17.346-6.607
			c-3.78-2.523-25.111-16.484-25.111-16.484L183.636,196.147z"/>
		<g id="XMLID_1358_">
			<polygon style="fill:#27DEBF;" points="286.796,207.681 238.048,224.862 224.613,282.859 225.7,284.017 272.047,266.725 
				287.884,208.839 			"/>
			<polygon style="opacity:0.35;" points="239.135,226.02 225.7,284.017 224.613,282.859 238.048,224.862 			"/>
			<polygon id="XMLID_1408_" style="opacity:0.25;" points="287.884,208.839 239.135,226.02 225.7,284.017 272.047,266.725 			"/>
			<g id="XMLID_1404_" style="opacity:0.2;">
				<path id="XMLID_1407_" d="M264.804,254.933c0.451,1.14,4.184,3.65,9.593,3.201l0.916-3.348L264.804,254.933z"/>
			</g>
			<g id="XMLID_1402_" style="opacity:0.1;">
				<path id="XMLID_1403_" d="M273.197,220.715c0,0,0.18-0.871,0.402-1.945c0.222-1.074-2.638-0.511-6.39,1.258l-8.798,2.661
					c-3.751,1.768-7.296,3.085-7.519,4.159l-0.402,1.945L273.197,220.715z"/>
			</g>
			<g id="XMLID_1389_">
				<path id="XMLID_1399_" style="fill:#37474F;" d="M276.096,211.921c0.142-0.672-0.971-0.535-2.528-0.122l-2.807,0.955
					c0,0,1.145-2.819-5.499-1.022c-7.31,1.977-7.468,5.627-7.468,5.627s-0.834,0.41-3.512,1.279
					c-2.427,0.787-2.696,1.263-2.894,1.943l-0.36,1.233l24.848-8.742C275.875,213.072,275.955,212.592,276.096,211.921z"/>
			</g>
			<g id="XMLID_1386_">
				<path id="XMLID_1387_" style="fill:#37474F;" d="M273.484,215.649c-2.302,1.043-3.257,1.552-3.602,3.207
					c-0.393,1.891-0.476,2.68-0.476,2.68l-12.94,5.1c0,0,0.702-2.784,0.873-3.712c0.172-0.929-1.539-0.937-3.781,0.099l0.534-2.321
					l20.122-7.475L273.484,215.649z"/>
			</g>
			<g id="XMLID_1381_">
				<path id="XMLID_1385_" style="fill:#37474F;" d="M273.865,220.749c0,0,0.18-0.87,0.403-1.945
					c0.223-1.074-2.638-0.511-6.39,1.258l-8.798,2.661c-3.751,1.769-7.296,3.086-7.519,4.16l-0.402,1.945L273.865,220.749z"/>
			</g>
			<g id="XMLID_1372_">
				<path id="XMLID_1374_" style="fill:#FFA8A7;" d="M282.455,228.68c0,0-1.729,6.36-2.181,7.971
					c-0.452,1.611-8.44,5.289-12.436,5.786c-7.642,0.951-8.511,2.607-6.675,8.038c1.693,5.008,6.67,6.893,13.57,6.083
					c3.234-0.38,7.709-3.249,9.466-8.261c2.24-6.394,1.037-13.224,1.927-16.958C287.016,227.604,284.402,226.453,282.455,228.68z"/>
			</g>
		</g>
		<path style="fill:#E0E0E0;" d="M206.915,316.137l-5.168,2.981l-2.166,1.251l-28.442,16.412l-3.875,2.237l-6.553,3.781l1.98-20.413
			l3.814-39.52l0.037-0.402l0.174-1.773l4.997-51.673l2.182-22.606l0.779-8.114l0.257-2.622c0.046-0.009,0.091-0.027,0.137-0.037
			c2.842-0.684,5.154-0.62,7.082-0.025c0.53,0.156,1.023,0.357,1.498,0.594c3.024,1.49,4.997,4.397,6.659,7.44
			c0.384,0.704,0.758,1.462,1.105,2.294c1.069,2.468,2.018,5.493,2.839,9.175c0,0.009,0,0.009,0,0.009
			c1.305,5.803,3.027,11.732,3.673,21.08c0.127,1.837,0,4.429-0.383,7.203c0,0,0.009,0,0,0.009
			c-0.386,6.605-0.606,12.496-0.23,18.937C198.148,276.686,201.747,283.169,206.915,316.137z"/>
		<g id="XMLID_438_">
			<path style="fill:#FFA8A7;" d="M199.581,320.369l-28.442,16.412l-3.875,2.237l-6.553,3.781l-4.506,2.603l-27.382,15.8
				c0.287-11.011,0.419-22.927,0.157-34.203c-0.081-3.765-0.107-7.621,0.049-11.559c0.516-13.679,3.116-28.345,12.442-43.785
				l0.43-0.786c1.067,6.516,11.117,10.75,20.081,11.749c0.338,0.037,0.676,0.073,1.014,0.092c1.133,0.11,2.303,0.156,3.509,0.156
				c0.247,0.009,0.493,0.009,0.759,0h0.009c7.612-0.061,16.613-1.859,26.958-5.364c0.985,5.794,2.015,13.406,3.072,22.306
				c0.474,4.021,0.966,8.288,1.458,12.793v0.009C199.035,315.133,199.308,317.719,199.581,320.369z"/>
			<path style="fill:#27DEBF;" d="M201.747,319.118l-2.166,1.251l-28.442,16.412l-3.875,2.237l-6.553,3.781l-4.506,2.603
				l-27.382,15.8l-2.989,1.726c0.141-11.833,0.245-23.439,0.238-30.721c-0.016-6.771,0.15-12.784,0.518-18.129
				c0.725-10.536,2.254-18.467,4.787-24.47c3.832-9.036,10.542-18.848,10.542-18.848s2.501,8.444,21.206,9.775
				c0.037,0.009,0.082,0.009,0.119,0.009c1.097,0.073,2.257,0.129,3.472,0.147c0.466,0.009,0.941,0.019,1.425,0.019
				c23.274,0.026,25.853-5.867,25.853-5.867s2.775,9.723,5.374,26.127c0.492,3.116,0.976,6.461,1.431,10.034
				C201.137,313.598,201.456,316.303,201.747,319.118z"/>
			<path style="opacity:0.4;" d="M201.747,319.118l-2.166,1.251l-28.442,16.412l-3.875,2.237l-6.553,3.781l-4.506,2.603
				l-27.382,15.8l-2.989,1.726c0.141-11.833,0.245-23.439,0.238-30.721c-0.016-6.771,0.15-12.784,0.518-18.129
				c0.725-10.536,2.254-18.467,4.787-24.47c3.832-9.036,10.542-18.848,10.542-18.848s2.501,8.444,21.206,9.775
				c0.037,0.009,0.082,0.009,0.119,0.009c1.097,0.073,2.257,0.129,3.472,0.147c0.466,0.009,0.941,0.019,1.425,0.019
				c23.274,0.026,25.853-5.867,25.853-5.867s2.775,9.723,5.374,26.127c0.492,3.116,0.976,6.461,1.431,10.034
				C201.137,313.598,201.456,316.303,201.747,319.118z"/>
			<path style="opacity:0.2;" d="M188.401,305.854c0,0-2.598,8.26-13.537,12.889l-0.522,2.522l-3.203,15.515l-3.875,2.237
				l2.318-17.105l1.007-7.447C170.589,314.466,180.165,314.085,188.401,305.854z"/>
		</g>
		<g>
			<path id="XMLID_3242_" style="fill:#27DEBF;" d="M155.132,198.046l-10.966,1.161c-7.276,1.778-10.562,4.985-11.313,11.434
				c-0.349,3.004-2.167,11.003,0.376,21.02c2.304,9.076,8.436,31.296,8.436,31.296s-14.165,18.42-16.724,50.086
				c25.863,16.878,65.532,7.804,76.26-2.396c-0.903-9.658-7.072-36.166-7.837-44.778c0,0,0.563-13.444,1.632-19.277
				c8.185-8.928,7.144-17.473,3.475-24.361c-6.776-12.721-17.006-23.9-20.31-23.886L155.132,198.046z"/>
			<path id="XMLID_1400_" style="opacity:0.7;fill:#FFFFFF;" d="M155.132,198.046l-10.966,1.161
				c-7.276,1.778-10.562,4.985-11.313,11.434c-0.349,3.004-2.167,11.003,0.376,21.02c2.304,9.076,8.436,31.296,8.436,31.296
				s-14.165,18.42-16.724,50.086c25.863,16.878,65.532,7.804,76.26-2.396c-0.903-9.658-7.072-36.166-7.837-44.778
				c0,0,0.563-13.444,1.632-19.277c8.185-8.928,7.144-17.473,3.475-24.361c-6.776-12.721-17.006-23.9-20.31-23.886L155.132,198.046z
				"/>
		</g>
		<g>
			<path style="fill:#FAFAFA;" d="M164.664,266.901c-0.018,0.201-0.037,0.375-0.055,0.53c-0.009,0.082-0.018,0.174-0.027,0.256
				c-0.009,0.128-0.018,0.219-0.028,0.256c0,0.009,0,0.018,0,0.018c-0.385,4.03-0.834,8.251-1.311,12.582
				c0,0.018-0.009,0.037-0.009,0.055c-0.073,0.703-0.156,1.398-0.238,2.111c-1.466,13.048-3.216,26.983-4.564,39.703
				c-0.33,3.079-0.633,6.076-0.908,8.982c-0.413,4.368-0.862,9.156-1.32,14.008l-27.382,15.8l-2.989,1.726l-7.65,4.411
				c1.531-15.15,5.124-50.247,7.131-66.092c0.229-1.791,0.522-3.582,0.87-5.354c0.082-0.439,0.174-0.868,0.265-1.297
				c0.037-0.183,0.082-0.356,0.119-0.539c0.128-0.594,0.265-1.179,0.403-1.763c0.137-0.539,0.265-1.087,0.403-1.626
				c0.302-1.206,0.631-2.394,0.979-3.554c0.165-0.566,0.329-1.124,0.503-1.672c0.165-0.548,0.338-1.096,0.512-1.636
				c0.357-1.087,0.713-2.147,1.079-3.17c0-0.027,0.009-0.046,0.018-0.064c0.174-0.493,0.357-0.978,0.531-1.462
				c0.247-0.676,0.494-1.334,0.741-1.974c0.101-0.265,0.201-0.539,0.302-0.795c0.146-0.356,0.283-0.713,0.421-1.06
				c0.494-1.233,0.988-2.403,1.454-3.49c0.101-0.238,0.21-0.475,0.311-0.713c0.128-0.292,0.256-0.566,0.375-0.85
				c0.302-0.694,0.603-1.343,0.887-1.946c0.128-0.283,0.256-0.548,0.375-0.813c0.146-0.301,0.283-0.594,0.421-0.877
				c0.064-0.137,0.128-0.274,0.192-0.402l0.192-0.384c0.018-0.055,0.046-0.1,0.073-0.146c0.027-0.073,0.064-0.146,0.101-0.21
				c0.018-0.046,0.046-0.091,0.064-0.137c0.082-0.155,0.155-0.302,0.219-0.439c0.274-0.539,0.494-0.978,0.667-1.306
				c0.027-0.064,0.064-0.119,0.091-0.174c0.165-0.32,0.256-0.484,0.256-0.484v-0.018l-8.323-34.498l-4.134-17.144
				c0,0,0.009-0.101,0.028-0.274v-0.009c0.192-1.517,1.465-8.68,8.785-10.862c3.802-1.123,8.654-1.642,12.629-1.878
				c1.636-0.1,3.116-0.145,4.322-0.172c0.768-0.009,1.416-0.018,1.919-0.018c0.411,0,0.722,0,0.914,0.009h0.027
				c0.128,0,0.201,0,0.201,0s0.009,0.018,0.027,0.064c0.055,0.155,0.228,0.603,0.484,1.298c0.009,0.018,0.018,0.027,0.018,0.037
				c0.027,0.11,0.073,0.219,0.119,0.338c0.009,0.009,0.018,0.027,0.018,0.046c1.799,4.944,6.847,19.329,9.356,31.812
				c0.438,2.166,0.803,4.277,1.058,6.269C166.372,244.085,165.82,254.538,164.664,266.901z"/>
			<path style="fill:#E6E6E6;" d="M138.516,246.306c0,0,0.99-4.928,2.472-15.577c1.709-12.279,1.098-18.35-0.75-22.233
				l-10.425,19.894l8.322,34.503l0.003,0.014c0,0-8.546,15.66-11.955,32.985c0,0,0,0.001,0,0.001
				c8.175-23.114,17.126-30.04,17.126-30.04L138.516,246.306z"/>
		</g>
		<path style="fill:#EBEBEB;" d="M175.059,190.348c3.242,0.001,3.618,0.544,6.411,4.285c1.665,2.23,12.169,19.576,12.169,19.576
			s-8.364-11.005-14.665-14.34c-2.571-1.361-3.902-1.553-3.902-1.553L175.059,190.348z"/>
		<path style="fill:#27DEBF;" d="M151.096,227.216c0.044-1.001-0.092-3.152-0.265-5.875c-0.842-13.307-1.226-25.331,3.268-26.297
			l0.395,1.834c-3.287,0.707-2.199,17.88-1.79,24.344c0.176,2.779,0.315,4.974,0.266,6.075L151.096,227.216z"/>
		<g id="XMLID_297_">
			<path id="XMLID_3201_" style="fill:#263238;" d="M136.099,139.879l7.005,5.735c1.608-1.812,1.343-4.565-0.592-6.149
				C140.578,137.882,137.706,138.068,136.099,139.879z"/>
			<path style="fill:#263238;" d="M154.384,191.2c0.001-4.393-10.233-10.975-15.512-20.227c-5.28-9.252-2.645-24.412,4.601-26.746
				c0.061-0.02,0.254-1.943,0.284-2.083c0.376-1.758,1.053-3.456,1.955-5.01c2.952-5.085,9.196-8.971,15.038-9.822
				c22.934-3.342,33.469,5.566,37.685,15.372c1.295,3.012,2.039,7.149,1.771,10.422c-0.589,7.19-5.777,10.401-9.274,11.141
				L154.384,191.2z"/>
			<path id="XMLID_3200_" style="fill:#FFA8A7;" d="M186.189,139.414c4.493,1.95,8.762,8.823,8.692,28.05
				c-0.06,16.296-5.057,20.416-7.583,21.624c-2.525,1.208-7.45,0.596-12.24-0.142l0.014,9.369c0,0,3.588,3.523,2.331,5.75
				c-1.185,2.099-5.916,4.093-13.139,1.824c-8.191-2.573-10.063-8.044-10.063-8.044l-0.156-20.496c0,0-2.757,2.895-7.603-1.352
				c-4-3.506-5.438-9.518-2.432-12.816c3.005-3.298,6.867-3.563,10.351,0.126l2.504-1.319c4.451-0.518,11.049-1.266,15.817-3.694
				C185.003,152.019,186.277,145.185,186.189,139.414z"/>
			<path id="XMLID_332_" style="fill:#263238;" d="M154.394,160.65l0.052,9.053c2.421,0.082,4.372-1.878,4.357-4.379
				C158.789,162.825,156.814,160.732,154.394,160.65z"/>
			<g id="XMLID_306_">
				<path id="XMLID_313_" d="M186.607,161.925c-0.046,1.24,0.886,2.279,2.079,2.319c1.194,0.04,2.2-0.932,2.245-2.173
					c0.046-1.24-0.885-2.279-2.08-2.319C187.657,159.711,186.653,160.685,186.607,161.925z"/>
			</g>
			<g id="XMLID_3027_">
				<path id="XMLID_3036_" d="M169.36,162.885c-0.049,1.332,0.951,2.446,2.232,2.49c1.282,0.043,2.36-1.001,2.408-2.332
					c0.05-1.332-0.95-2.446-2.231-2.49C170.488,160.51,169.409,161.554,169.36,162.885z"/>
			</g>
			<path id="XMLID_302_" d="M192.334,157.904l-5.573-2.215c0.507-1.619,2.323-2.318,3.862-1.707
				C192.161,154.594,192.841,156.285,192.334,157.904z"/>
			<polygon id="XMLID_3009_" style="fill:#F28F8F;" points="181.329,160.166 181.047,173.514 188.223,171.916 			"/>
			<path id="XMLID_3011_" style="fill:#B16668;" d="M172.881,176.228l6.979,2.172c-0.538,2.077-2.536,3.275-4.463,2.676
				C173.47,180.476,172.343,178.306,172.881,176.228z"/>
			<path style="fill:#F28F8F;" d="M176.748,181.204c-0.014-2.027-1.658-3.666-3.688-3.667c-0.099,0-0.192,0.021-0.289,0.029
				c0.11,1.6,1.115,3.039,2.627,3.509C175.851,181.217,176.307,181.251,176.748,181.204z"/>
			<path id="XMLID_3002_" style="fill:#F28F8F;" d="M175.057,188.946c-5.045-0.592-15.455-3.491-17.147-7.722
				c0,0,0.588,2.667,3.73,5.369c3.145,2.7,13.422,5.506,13.422,5.506L175.057,188.946z"/>
		</g>
		<path style="fill:#EBEBEB;" d="M154.144,190.404c-1.322-0.27-2.497,0.301-3.573,2.13c-1.077,1.829-3.451,5.691-3.451,5.691
			s-1.225,12.791-0.006,15.967c1.057,2.754,12.751,13.107,12.751,13.107s-3.058,11.489-3.167,15.256s7.04,18.087,7.858,25.409
			c0,0,2.53-23.029,1.448-31.291c-1.883-14.378-8.626-32.936-11.804-38.829L154.144,190.404z"/>
		<g>
			<g>
				<path style="fill:#455A64;" d="M161.293,237.97c-0.566-1.389-1.561-3.409-2.749-5.374c0-0.009,0-0.009-0.009-0.009
					c-1.662-2.751-3.717-5.383-5.563-6.069c-0.301-0.11-0.594-0.174-0.886-0.174h-0.091c-0.292,0.009-0.585,0.091-0.886,0.219
					c-1.462,0.648-2.962,2.64-4.251,4.924c-1.417,2.512-2.578,5.4-3.146,7.227c-0.485,1.544-0.276,4.834,0.299,8.599
					c1.122,7.301,3.613,16.422,5.011,18.223c0.868,1.124,2.147,2.276,3.572,3.245c-0.896,0.575-1.81,1.032-2.65,1.306
					c-0.603,0.201-1.17,0.31-1.654,0.292l-0.046,1.316h0.155c0.539,0,1.133-0.1,1.755-0.292c1.188-0.356,2.458-1.023,3.665-1.854
					c1.279,0.732,2.604,1.289,3.81,1.546c0.694,0.146,1.343,0.192,1.928,0.119l-0.155-1.307c-0.503,0.064-1.06,0.009-1.672-0.129
					c-0.859-0.201-1.809-0.595-2.759-1.097c1.344-1.087,2.523-2.348,3.3-3.535c0.777-1.197,1.738-5.299,2.461-10.005
					c0.44-2.805,0.797-5.83,0.98-8.58C161.967,242.758,161.905,239.469,161.293,237.97z M157.163,264.432
					c-0.768,1.178-2.02,2.457-3.41,3.526c-1.48-0.942-2.832-2.112-3.7-3.227c-1.306-1.691-3.706-10.592-4.783-17.61
					c-0.547-3.546-0.747-6.616-0.308-8.014c0.768-2.43,1.957-5.117,3.219-7.273c1.381-2.384,2.843-4.129,3.867-4.175h0.046
					c1.206,0,3.161,2.194,4.96,5.018c0.365,0.557,0.712,1.152,1.059,1.755c0.74,1.316,1.425,2.705,1.963,4.03
					c0.557,1.362,0.611,4.432,0.363,8.023c-0.138,1.974-0.358,4.094-0.642,6.177C159.075,258.054,157.995,263.143,157.163,264.432z"
					/>
			</g>
			<g>
				<path style="fill:#263238;" d="M161.404,270.48c0.045,1.064-0.782,1.964-1.846,2.009c-1.064,0.045-1.964-0.781-2.008-1.846
					c-0.045-1.064,0.781-1.964,1.846-2.008C160.46,268.59,161.359,269.416,161.404,270.48z"/>
			</g>
			<g>
				<path style="fill:#263238;" d="M150.192,270.953c0.045,1.064-0.781,1.964-1.846,2.008c-1.064,0.045-1.964-0.781-2.008-1.845
					c-0.045-1.064,0.782-1.964,1.846-2.009C149.248,269.063,150.147,269.889,150.192,270.953z"/>
			</g>
			<g>
				<g>
					<path style="fill:#27DEBF;" d="M161.617,246.578l-1.107-0.075c-0.235-0.016-0.412-0.226-0.397-0.462
						c0.225-3.667,0.104-6.369-0.339-7.449c-1.939-4.738-5.958-10.681-7.71-10.608c-1.751,0.074-5.256,6.335-6.79,11.22
						c-0.35,1.116-0.243,3.818,0.29,7.451c0.034,0.234-0.124,0.458-0.357,0.494l-1.096,0.168c-0.236,0.036-0.46-0.136-0.494-0.373
						c-0.601-4.08-0.676-6.881-0.221-8.33c0.823-2.62,4.691-12.433,8.586-12.597c3.897-0.165,8.576,9.288,9.616,11.829
						c0.576,1.402,0.738,4.2,0.482,8.319C162.064,246.403,161.856,246.594,161.617,246.578z"/>
				</g>
			</g>
		</g>
		<g>
			<path style="fill:#FFA8A7;" d="M137.643,199.908c-7.326-0.118-10.703,2.35-15.338,8.563c-3.68,4.934-17.992,31.568-22.75,39.353
				l-25.865-13.788c-5.23-3.605-6.922-9.31-10.226-12.639c-3.305-3.329-6.743-4-10.388-6.746c-3.644-2.746-5.118-4.896-6.164-2.326
				c-1.047,2.57,3.041,6.74,3.769,7.769c0.728,1.03,4.825,3.316-0.445,3.397c-5.27,0.081-15.696-5.421-18.204-6.39
				c-2.508-0.968-2.396,2.057-1.144,3.975c1.251,1.918,1.195,7.426,3.3,10.593c2.233,3.361,3.45,4.816,8.42,6.95
				c4.629,1.988,14.326,2.8,19.231,5.875c4.905,3.075,17.088,13.886,24.486,20.377c9.404,8.25,15.895,9.76,21.136,4.809
				c5.088-5.326,10.252-11.583,12.77-14.751c6.79-8.544,17.536-27.967,17.536-27.967S142.377,216.996,137.643,199.908z"/>
			<path style="fill:#F0F0F0;" d="M138.647,199.175c-10.775,0-14.005,3.908-19.517,12.913c-5.511,9.005-19.676,34.798-19.676,34.798
				l-20.396-10.679c0,0-3.664,8.079-7.57,16.41c0,0,11.542,10.002,17.028,14.734c5.487,4.732,12.7,8.436,19.418,2.648
				c7.171-6.178,30.416-38.284,30.416-38.284C143.837,221.686,142.607,206.499,138.647,199.175z"/>
			<path style="fill:#E0E0E0;" d="M99.453,246.886c3.326,3.92,7.354,8.336,7.181,11.807c0,0,2.276-3.081-5.732-14.438
				L99.453,246.886z"/>
		</g>
	</g>
</g>
<g id="Icons">
	<g>
		<polygon style="fill:#27DEBF;" points="60.884,150.717 52.544,155.503 52.569,145.917 46.333,142.316 31.781,150.717 
			31.781,167.52 17.23,175.921 17.23,192.724 23.466,196.325 31.781,191.524 31.781,201.126 38.018,204.726 52.569,196.325 
			52.569,179.522 67.121,171.121 67.121,154.318 		"/>
		<polygon id="XMLID_497_" style="fill:#27DEBF;" points="23.466,179.522 23.466,196.325 38.018,187.923 38.018,204.726 
			52.569,196.325 52.569,179.522 67.121,171.121 67.121,154.318 52.525,162.745 52.569,145.917 38.018,154.318 38.018,171.12 		"/>
		<g style="opacity:0.2;">
			<polygon id="XMLID_3654_" points="23.466,196.325 17.23,192.724 17.23,175.921 23.466,179.522 			"/>
			<polygon id="XMLID_3653_" points="38.018,154.318 31.781,150.717 31.781,167.52 38.018,171.12 			"/>
			<polygon id="XMLID_439_" points="38.018,204.726 31.781,201.126 31.781,191.523 38.018,187.923 			"/>
		</g>
		<g style="opacity:0.5;">
			<polygon id="XMLID_3648_" style="fill:#FFFFFF;" points="38.018,171.12 31.781,167.52 17.23,175.921 23.466,179.522 			"/>
			<polygon id="XMLID_3647_" style="fill:#FFFFFF;" points="52.569,145.917 46.333,142.316 31.781,150.717 38.018,154.318 			"/>
			<polygon id="XMLID_261_" style="fill:#FFFFFF;" points="67.121,154.318 60.884,150.717 52.544,155.503 52.525,162.745 			"/>
		</g>
	</g>
	<g id="Heart_1_">
		<path style="fill:#27DEBF;" d="M300.201,117.034l0.009-0.019l-0.044-0.042c-0.259-0.232-0.541-0.438-0.842-0.616
			c-1.064-0.63-5.863-3.384-6.11-3.542c-2.538-1.612-6.558-1.258-10.145,0.554c-5.124,2.589-9.393,8.06-12.655,17.166
			c0,0-3.299-2.368-4.377-2.959c-2.649-1.451-5.742-0.743-9.232,1.523c-3.937,2.557-6.614,5.878-9.062,10.9l-0.044,0.093
			l0.008,0.009c-2.093,4.331-3.378,9.165-3.395,13.697c-0.04,10.532,4.311,15.553,9.92,19.325c1.597,1.074,5.831,3.345,6.254,3.629
			c3.389,2.28,7.13,3.827,11.069,4.837l5.528,1.292l5.528-7.675c3.939-5.558,7.68-11.425,11.069-17.618
			c5.608-10.249,9.96-20.293,9.92-30.78C303.58,122.298,302.294,118.948,300.201,117.034z"/>
		<path style="opacity:0.3;" d="M300.201,117.034l0.009-0.019l-0.044-0.042c-0.259-0.232-0.541-0.438-0.842-0.616
			c-1.064-0.63-5.863-3.384-6.11-3.542c-2.538-1.612-6.558-1.258-10.145,0.554c-5.124,2.589-9.393,8.06-12.655,17.166
			c0,0-3.299-2.368-4.377-2.959c-2.649-1.451-5.742-0.743-9.232,1.523c-3.937,2.557-6.614,5.878-9.062,10.9l-0.044,0.093
			l0.008,0.009c-2.093,4.331-3.378,9.165-3.395,13.697c-0.04,10.532,4.311,15.553,9.92,19.325c1.597,1.074,5.831,3.345,6.254,3.629
			c3.389,2.28,7.13,3.827,11.069,4.837l5.528,1.292l5.528-7.675c3.939-5.558,7.68-11.425,11.069-17.618
			c5.608-10.249,9.96-20.293,9.92-30.78C303.58,122.298,302.294,118.948,300.201,117.034z"/>
		<path style="fill:#27DEBF;" d="M300.201,117.034l0.009-0.019l-0.044-0.042c-0.259-0.233-0.541-0.438-0.842-0.616
			c-1.064-0.63-5.863-3.384-6.11-3.542c-2.538-1.612-6.558-1.258-10.145,0.554c-5.124,2.589-9.393,8.06-12.655,17.166
			c0,0-3.299-2.368-4.377-2.959c-2.649-1.451-5.742-0.743-9.232,1.523c-3.937,2.557-6.614,5.878-9.062,10.9l-0.044,0.093
			l0.008,0.009c-0.104,0.215-0.196,0.436-0.296,0.654l41.952,24.221c1.486-2.414,2.936-4.867,4.316-7.387
			c5.608-10.249,9.96-20.293,9.92-30.78C303.58,122.298,302.294,118.948,300.201,117.034z"/>
		<path style="opacity:0.15;" d="M300.201,117.034l0.009-0.019l-0.044-0.042c-0.259-0.233-0.541-0.438-0.842-0.616
			c-1.064-0.63-5.863-3.384-6.11-3.542c-2.538-1.612-6.558-1.258-10.145,0.554c-5.124,2.589-9.393,8.06-12.655,17.166
			c0,0-3.299-2.368-4.377-2.959c-2.649-1.451-5.742-0.743-9.232,1.523c-3.937,2.557-6.614,5.878-9.062,10.9l-0.044,0.093
			l0.008,0.009c-0.104,0.215-0.196,0.436-0.296,0.654l41.952,24.221c1.486-2.414,2.936-4.867,4.316-7.387
			c5.608-10.249,9.96-20.293,9.92-30.78C303.58,122.298,302.294,118.948,300.201,117.034z"/>
		<path style="fill:#27DEBF;" d="M270.412,130.535L270.412,130.535l5.619,7.33l9.06-10.715l-10.239-5.911
			C273.216,123.781,271.73,126.856,270.412,130.535z"/>
		<path style="opacity:0.3;" d="M270.412,130.535L270.412,130.535l5.619,7.33l9.06-10.715l-10.239-5.911
			C273.216,123.781,271.73,126.856,270.412,130.535z"/>
		<path style="fill:#27DEBF;" d="M300.201,117.034l0.009-0.019l-0.044-0.042c-2.448-2.196-6.907-1.963-10.844,0.025
			c-5.376,2.716-9.814,8.596-13.132,18.528c-3.318-6.1-7.756-6.289-13.132-2.798c-3.937,2.557-6.614,5.878-9.062,10.9l-0.044,0.093
			l0,0c-2.093,4.331-3.37,9.174-3.387,13.705c-0.04,10.532,4.311,15.553,9.92,19.325c3.389,2.28,7.13,3.827,11.069,4.837
			l5.528,1.292l5.528-7.675c3.939-5.558,7.68-11.424,11.069-17.618c5.608-10.249,9.959-20.293,9.92-30.78
			C303.58,122.298,302.294,118.948,300.201,117.034z"/>
		<g style="opacity:0.07;">
			<path d="M295.478,115.95c1.767,0,3.245,0.475,4.27,1.368c0.025,0.04,0.056,0.077,0.092,0.111
				c2.062,1.886,3.206,5.218,3.222,9.383c0.041,10.951-4.958,21.574-9.854,30.521c-3.176,5.803-6.889,11.713-11.034,17.562
				l-5.319,7.386l-5.17-1.208c-4.099-1.051-7.767-2.653-10.903-4.762c-5.053-3.399-9.724-8.039-9.684-18.88
				c0.016-4.274,1.2-9.059,3.335-13.477l0.043-0.089c2.461-5.05,5.114-8.246,8.872-10.686c2.28-1.48,4.236-2.2,5.982-2.2
				c2.541,0,4.63,1.572,6.389,4.805c0.094,0.173,0.275,0.279,0.47,0.279c0.016,0,0.031-0.001,0.047-0.002
				c0.212-0.019,0.393-0.161,0.46-0.363c3.17-9.488,7.379-15.448,12.866-18.22C291.51,116.492,293.611,115.95,295.478,115.95
				 M295.478,115.415c-1.96,0-4.127,0.558-6.156,1.583c-5.376,2.716-9.814,8.596-13.132,18.528
				c-1.922-3.534-4.221-5.084-6.859-5.084c-1.916,0-4.011,0.817-6.273,2.286c-3.937,2.557-6.614,5.878-9.061,10.9l-0.045,0.093
				c-2.093,4.331-3.37,9.174-3.387,13.705c-0.04,10.532,4.311,15.553,9.92,19.325c3.389,2.28,7.13,3.827,11.069,4.837l5.528,1.292
				l5.528-7.675c3.939-5.558,7.68-11.425,11.069-17.618c5.608-10.249,9.96-20.293,9.92-30.78c-0.017-4.511-1.303-7.861-3.396-9.776
				l0.009-0.019l-0.044-0.042C298.979,115.909,297.32,115.415,295.478,115.415L295.478,115.415z"/>
		</g>
		<path style="fill:#FFFFFF;" d="M299.594,145.353l-10.764,6.214l-3.961-14.544c-0.124-0.453-0.55-0.766-1.012-0.754
			c-0.471,0.012-0.874,0.344-0.973,0.804l-6.234,28.456l-5.242-14.338c-0.152-0.417-0.535-0.676-0.999-0.671
			c-0.444,0.017-0.826,0.318-0.945,0.745l-3.542,12.575l-11.844,6.839c0.394,0.576,0.82,1.115,1.265,1.631l11.963-6.907
			c0.23-0.133,0.401-0.352,0.473-0.609l2.796-9.928l5.362,14.667c0.155,0.427,0.542,0.697,1.029,0.67
			c0.453-0.031,0.832-0.357,0.93-0.802l6.096-27.822l3.216,11.806c0.084,0.306,0.304,0.556,0.598,0.676
			c0.293,0.121,0.626,0.099,0.9-0.06l9.555-5.517C298.729,147.441,299.173,146.398,299.594,145.353z"/>
	</g>
</g>
<g id="Character">
	<g id="Character_4_">
		<g id="XMLID_3204_">
			<g>
				<path style="fill:#263238;" d="M344.752,412.79c-0.398,1.119-0.458,3.415-0.1,4.171c0.397,0.838,2.903,3.597,8.003,4.6
					c5.101,1.003,12.119-0.027,15.134-0.183c3.014-0.156,12.503,0.974,15.515,1.381c4.733,0.641,8.379-0.396,10.144-2.113
					c0.692-0.673,0.746-1.652,0.711-2.495c-0.082-1.998-0.27-2.4-0.502-3.371L344.752,412.79z"/>
				<g id="XMLID_3448_">
					<g id="XMLID_3452_">
						<path id="XMLID_3455_" style="fill:#37474F;" d="M392.871,409.819c0.094,0.394,0.179,0.79,0.255,1.188
							c0.374,1.968,0.7,4.148,0.439,6.147c-0.61,1.497-2.289,2.321-3.639,2.75c-3.562,1.131-6.281,0.95-10.23,0.202
							c-2.367-0.449-9.177-0.929-12.008-0.737c-3.11,0.211-7.389,0.806-10.499,0.521c-2.657-0.244-5.267-0.522-7.726-1.575
							c-2.077-0.889-4.195-2.028-4.701-4.164c-0.615-4.497,1.276-6.486,3.412-7.736c2.256-1.32,5.157-1.161,8.396-1.377
							c2.935-0.196,5.07-0.201,7.677-0.399c1.766-0.134,4.995-0.392,6.706-0.932c1.962-0.619,3.982-3.126,4.817-3.215
							c0,0,13.048-0.103,14.295,0c1.44,0.12,1.88,4.583,2.058,5.552c0.14,0.76,0.165,1.574,0.369,2.308
							C392.626,408.839,392.755,409.328,392.871,409.819z"/>
					</g>
				</g>
				<path style="fill:#FAFAFA;" d="M352.655,419.29c-0.407-3.242-0.946-10.264,5.02-14.32l0.758-0.04c0,0-3.473-1.271-8.25,0
					c-4.777,1.271-6.892,5.131-5.703,9.204C344.48,414.135,345.544,418.087,352.655,419.29z"/>
				<path style="fill:#FAFAFA;" d="M370.069,403.945c-1.931,1.708-2.598,5.599-2.598,5.599c-0.251,1.457-2.894,1.673-2.64,0.271
					c0,0,0.589-3.124,2.285-5.423C367.116,404.391,368.377,403.626,370.069,403.945z"/>
				<path style="fill:#FAFAFA;" d="M364.66,404.607c0,0-2.077,1.754-2.708,5.305c-0.27,1.397-2.47,1.374-2.315,0.023
					c0,0,0.257-3.447,2.317-5.061C362.657,404.327,364.02,404.255,364.66,404.607z"/>
			</g>
			<g>
				<g id="XMLID_3244_">
					<path id="XMLID_3285_" style="fill:#FFA8A7;" d="M390.474,390.966c0,0-0.35,8.396-0.818,11.14
						c-0.28,1.642-2.423,3.364-7.777,3.182c-3.761-0.128-6.719,0.185-6.57-2.76l0.333-8.566L390.474,390.966z"/>
				</g>
			</g>
			<g>
				<path id="XMLID_3243_" style="fill:#263238;" d="M398.858,371.18c-0.19,2.293-0.498,4.356,0.438,6.878
					c1.343,3.62,4.183,5.278,5.85,6.706c1.667,1.428,3.296,3.706,4.859,5.6c1.633,1.98,2.065,3.186,4.529,5.364
					c2.168,1.916,6.009,2.381,8.734,1.227c2.132-0.904,2.871-1.629,2.738-4.896c-0.13-3.191-10.542-4.379-10.542-4.379
					L398.858,371.18z"/>
				<path id="XMLID_3241_" style="fill:#37474F;" d="M424.659,382.321c0.888,0.32,1.112,1.929,1.247,5.128
					c0.102,2.421,1.171,5.964-2.334,7.49c-2.828,1.231-7.348,0.413-9.259-1.869c-2.385-2.848-3.997-5.355-7.4-8.829
					c-2.952-3.014-6.026-4.03-7.337-10.055c-0.843-3.873-0.18-5.477,2.56-6.588c3.768-1.527,9.687,3.463,12.64,4.249
					C417.32,372.523,423.771,382.001,424.659,382.321z"/>
				<path id="XMLID_3240_" style="fill:#FAFAFA;" d="M414.777,371.846c-0.158-0.042-0.327-0.101-0.501-0.166
					c-5.438,0.449-7.612,4.012-8.158,5.088c-0.503,1.054,1.046,1.875,1.967,1.054c2.105-3.979,6.429-4.861,8.151-5.057
					C415.681,372.294,415.177,371.953,414.777,371.846z"/>
				<path id="XMLID_3239_" style="fill:#FAFAFA;" d="M417.214,373.67c-5.023,0.641-7.052,4.006-7.579,5.045
					c-0.502,1.054,1.047,1.875,1.968,1.054c1.669-3.155,4.74-4.365,6.799-4.828C417.996,374.487,417.597,374.055,417.214,373.67z"/>
				<g id="XMLID_3237_">
					<path id="XMLID_3238_" style="fill:#FFA8A7;" d="M425.166,376.541l-0.506,6.746c0,0-4.294,3.138-10.436,0.268
						c-0.181-0.379-0.704-6.41-0.704-6.41L425.166,376.541z"/>
				</g>
				<path id="XMLID_3236_" style="fill:#FAFAFA;" d="M401.306,378.644c0,0,0.296-7.171,10.487-8.168l0.584,0.314
					c0,0-1.624-2.812-5.013-3.681c-3.389-0.869-6.064-0.036-7.842,2.143C397.743,371.433,399.546,377.246,401.306,378.644z"/>
			</g>
			<g id="XMLID_3233_">
				<path id="XMLID_3235_" style="fill:#455A64;" d="M428.14,331.581c-1.455-11.809-2.002-18.396-2.002-18.396
					s-0.291-16.622,0.721-31.957c0.445-6.743,0.668-14.198,0.806-20.946c0.2-9.826-0.895-17.992-1.771-22.345
					c0,0-52.295-10.402-52.949,8.785c-0.784,22.992-0.69,62.303-1.573,77.318c-0.496,8.432,0.354,15.415,0.883,31.797
					c0.439,13.581,0.306,47.014,0.306,47.014c5.76,7.906,19.357,1.873,19.357,1.873s4.204-46.922,4.819-56.628
					c0.661-10.426-0.441-15.712-0.441-15.712l5.393-48.589c0,0,0.409,15.588,0.874,24.022c0.466,8.434,1.683,13.58,3.873,29.272
					c1.901,13.614,5.94,48.375,5.94,48.375c6.965,4.143,13.761,0,13.761,0S429.596,343.39,428.14,331.581z"/>
			</g>
			<g id="XMLID_3205_">
				<path id="XMLID_3228_" style="fill:#37474F;" d="M420.965,264.466c0,0-6.542,8.362-14.955,11.951c0,0-3.659,29.394-3.629,28.81
					l-0.954-29.581C401.427,275.646,413.999,270.088,420.965,264.466z"/>
			</g>
		</g>
		<g>
			<g id="XMLID_3497_">
				<path id="XMLID_3548_" style="fill:#FFA8A7;" d="M420.824,169.995c5.625-1.252,11.953,2.763,16.236,11.73
					c4.103,8.588,15.299,30.259,15.572,36.325c0.284,6.292-27.693,25.367-26.973,25.027c0.221-0.104-4.824-14.428-4.824-14.428
					l13.587-11.25l-7.404-15.247L420.824,169.995z"/>
				<path id="XMLID_3458_" style="fill:#37474F;" d="M417.861,168.647c4.741-0.578,13.332,1.216,16.614,6.909
					c4.755,8.25,9.1,17.791,14.625,30.129c0,0-4.095,8.877-15.899,9.716l-7.066-12.366L417.861,168.647z"/>
			</g>
			<polygon id="XMLID_3203_" style="fill:#FFA8A7;" points="393.999,161.221 394.818,178.715 412.161,177.79 411.627,157.457 			"/>
			<path id="XMLID_3202_" style="fill:#27DEBF;" d="M429.186,177.461c-1.452-4.773-6.497-8.7-12.865-8.891
				c-1.421-0.043-4.401,0.043-4.401,0.043c-0.725,2.949-9.748,4.05-17.47,2.232c-2.327,0.611-12.028,2.952-13.966,3.595
				c-5.55,1.842-7.264,7.495-8.128,25.597c0,0,0.175,35.687,0,52.716c9.76,5.144,24.846,4.503,35.576,3.419
				c16.855-1.703,19.367-7.81,19.367-7.81c-0.706-9.93-0.275-13.669,0.003-23.477c0.208-7.364,2.331-15.159,2.984-23.505
				C431.261,188.928,430.183,180.738,429.186,177.461z"/>
			<g id="Scarf">
				<path style="fill:#27DEBF;" d="M391.293,164.536c-3.982-0.277-8.975,2.917-10.297,9.746l3.263-0.876L391.293,164.536z"/>
				<path style="opacity:0.3;" d="M391.293,164.536c-3.982-0.277-8.975,2.917-10.297,9.746l3.263-0.876L391.293,164.536z"/>
				<path style="fill:#27DEBF;" d="M394.224,166.014c2.997,1.037,11.743,0.853,14.674,0c2.932-0.853,2.897-2.163,2.897-2.163v-1.473
					c0,0,2.874-0.044,4.738,1.473c1.865,1.518,5.087,6.946,4.961,9.625s-5.714,9.573-16.555,9.407
					c-10.841-0.166-16.926-4.177-18.803-6.826c-1.878-2.649-1.878-2.649-1.878-2.649s2.575-5.281,5.096-7.501
					c2.521-2.22,4.755-2.316,4.755-2.316L394.224,166.014z"/>
				<path style="opacity:0.2;" d="M394.224,166.014c2.997,1.037,11.743,0.853,14.674,0c2.932-0.853,2.897-2.163,2.897-2.163v-1.473
					c0,0,2.874-0.044,4.738,1.473c1.865,1.518,5.087,6.946,4.961,9.625s-5.714,9.573-16.555,9.407
					c-10.841-0.166-16.926-4.177-18.803-6.826c-1.878-2.649-1.878-2.649-1.878-2.649s2.575-5.281,5.096-7.501
					c2.521-2.22,4.755-2.316,4.755-2.316L394.224,166.014z"/>
			</g>
			<g id="XMLID_3195_">
				<g id="XMLID_3198_">
					<path id="XMLID_3199_" style="fill:#F28F8F;" d="M382.334,139.756c0,0-4.134,6.273-3.663,6.889
						c0.471,0.616,3.513,1.172,3.513,1.172L382.334,139.756z"/>
				</g>
				<g id="XMLID_3196_">
					<path id="XMLID_3197_" style="fill:#FFA8A7;" d="M393.813,122.402c-8.366,1.765-11.703,4.214-12.219,18.503
						c-0.502,13.902,1.244,18.481,3.068,20.351c1.232,1.261,8.075,1.49,11.528,0.538c4.321-1.191,14.086-4.652,18.66-11.637
						c5.379-8.218,6.793-19.356,1.033-23.925C407.777,119.801,397.218,121.684,393.813,122.402z"/>
				</g>
				<path style="fill:#F28F8F;" d="M384.664,161.254c1.01,1.034,5.79,1.372,9.383,0.937l-0.046-2.069
					C394.001,160.122,389.81,161.873,384.664,161.254z"/>
			</g>
			<g id="XMLID_2991_">
				<g id="XMLID_2999_">
					<g id="XMLID_3000_">
						<path id="XMLID_3001_" style="fill:#263238;" d="M380.483,127.767c1.641,1.318,4.918,2.253,7.201,1.735
							c0,0-0.132,1.796,0.852,3.166c0.984,1.369,2.131,2.222,3.626,2.625c-0.916,1.784-1.409,3.784-1.428,5.789
							c-0.006,0.63,0.045,1.295,0.394,1.82c0.616,0.925,1.651,0.825,2.126-0.043c0.57-1.042,0.967-2.124,1.766-3.03
							c0.924-1.049,2.186-1.85,3.576-2.001c5.256-0.571,5.91,6.301,3.808,9.151c-3.439,4.664-6.36,1.507-6.36,1.507
							s-0.776,6.629,4.504,11.87c0,0,4.664,1.736,11.467,0.286c4.665-6.413,7.596-9.529,10.082-15.065
							c5.259-11.709,2.72-19.055-1.346-22.151c-0.808-5.396-5.057-7.815-9.9-8.927c-7.243-1.664-14.016,2.636-21.179,1.032
							c-1.164-0.261-2.369-0.54-3.494-0.916c-0.46-0.154-0.976-0.306-1.414-0.097c-0.556,0.265-0.718,0.986-0.677,1.6
							c0.092,1.382,1.486,2.912,2.196,3.657c-2.221,0.29-3.903-0.202-4.683-0.273c-0.543-0.049-1.101-0.097-1.624,0.055
							c-1.201,0.349-1.891,1.7-1.855,2.951C378.182,124.498,378.972,126.553,380.483,127.767z"/>
					</g>
				</g>
				<g id="XMLID_2992_">
					<g id="XMLID_2997_">
						<path id="XMLID_2998_" style="fill:#263238;" d="M420.882,125.231l5.006-2.951c-0.815-1.382-2.596-1.842-3.979-1.027
							C420.527,122.067,420.068,123.848,420.882,125.231z"/>
					</g>
				</g>
			</g>
			<g>
				<path id="XMLID_2990_" style="fill:#FFA8A7;" d="M355.717,204.016c-1.125-4.45-2.218-8.908-3.282-13.372
					c-0.981-4.116-2.534-8.873-1.122-13.075c0.636-1.893,1.922-3.482,2.977-5.177c1.049-1.685,1.877-3.496,2.598-5.343
					c0.353-0.904,0.669-1.82,0.995-2.733c0.276-0.775,0.801-1.429,0.577-2.301c-0.73-2.848-4.413,0.894-5.165,2.068
					c-0.376,0.587-0.678,1.231-1.157,1.739c-0.479,0.507-1.651,1.147-2.21,0.399c-0.213-0.285-0.265-0.656-0.295-1.01
					c-0.381-4.389,1.197-8.317,2.511-12.419c0.176-0.548,0.353-1.105,0.369-1.68c0.016-0.575-0.15-1.181-0.569-1.575
					c-0.598-0.562-1.547-0.553-2.325-0.294c-0.735,0.244-1.381,0.713-2.118,0.943c-0.628,0.196-1.294,0.236-1.943,0.4
					c-1.525,0.385-3.041,0.871-4.404,1.671c-2.406,1.412-3.467,3.468-4.091,6.096c-0.762,3.211-1.013,6.541-0.761,9.831
					c0.168,2.181,0.554,4.349,0.824,6.508c0.302,2.41,0.604,4.82,0.906,7.23c0.604,4.82,0.783,28.894,1.622,33.685
					c0.84,4.791,2.425,8.04,6.216,9.589c5.495,2.245,14.392-7.882,19.439-13.117L355.717,204.016z"/>
				<path style="fill:#F28F8F;" d="M353.707,201.268c-3.533,2.65-7.949,7.066-8.833,11.482c0,0-0.883-7.949,8.833-15.015V201.268z"
					/>
				<path id="XMLID_1297_" style="fill:#37474F;" d="M380.173,174.512c-3.4,0.314-9.039,0.443-14.698,6.569
					c-6.617,7.162-16.808,21.285-16.808,21.285s1.332,11.236,12.153,15.269c0,0,15.726-14.977,19.109-21.466
					C383.311,189.679,384.067,179.031,380.173,174.512z"/>
			</g>
		</g>
		<g id="Pain">
			<polygon style="fill:#27DEBF;" points="375.64,150.746 371.337,148.445 373.814,146.328 364.879,142.146 368.78,139.894 
				359.155,134.773 364.879,139.818 360.231,142.146 370.717,146.695 368.129,149.283 			"/>
			<polygon style="fill:#27DEBF;" points="377.835,145.077 375.032,142.398 376.555,141.266 374.099,138.355 376.458,137.549 
				375.64,133.852 377.297,137.843 375.64,138.56 378.295,141.477 376.504,142.76 			"/>
			<polygon style="fill:#27DEBF;" points="376.197,154.98 370.922,159.1 368.97,156.232 364.353,158.74 362.457,155.191 
				355.309,157.016 363.585,153.064 365.955,156.329 369.79,154.27 371.392,157.016 			"/>
		</g>
		<g>
			<g>
				<path style="fill:#E0E0E0;" d="M339.488,228.71c0.003-0.003,0.007-0.006,0.011-0.008c0.335-0.28,0.833-0.234,1.112,0.101
					c0.134,0.158,3.356,3.894,8.35,2.378c0.417-0.127,0.858,0.109,0.985,0.527c0.127,0.417-0.109,0.855-0.527,0.985
					c-6.013,1.826-9.86-2.686-10.021-2.879C339.122,229.483,339.163,228.991,339.488,228.71z"/>
			</g>
			<g>
				<path style="fill:#E0E0E0;" d="M340.288,233.967c0.292-0.253,0.733-0.258,1.033,0.001c0.085,0.072,2.193,1.817,5.64,1.135
					c0.428-0.084,0.843,0.194,0.928,0.622c0.084,0.427-0.193,0.842-0.622,0.928c-4.233,0.837-6.87-1.396-6.98-1.491
					c-0.33-0.286-0.365-0.784-0.08-1.114C340.232,234.018,340.259,233.991,340.288,233.967z"/>
			</g>
		</g>
		<g>
			<g>
				<path style="fill:#E0E0E0;" d="M438.478,173.387c-0.004,0.002-0.008,0.004-0.013,0.006c-0.391,0.195-0.864,0.034-1.058-0.357
					c-0.094-0.185-2.356-4.569-7.566-4.258c-0.435,0.026-0.809-0.306-0.836-0.742c-0.026-0.435,0.305-0.807,0.742-0.836
					c6.272-0.375,8.964,4.909,9.074,5.134C439.014,172.721,438.859,173.19,438.478,173.387z"/>
			</g>
			<g>
				<path style="fill:#E0E0E0;" d="M438.925,168.089c-0.343,0.178-0.773,0.081-1.004-0.242c-0.066-0.09-1.709-2.278-5.22-2.418
					c-0.435-0.018-0.775-0.385-0.758-0.821c0.018-0.435,0.384-0.774,0.821-0.758c4.312,0.172,6.356,2.958,6.441,3.076
					c0.254,0.355,0.173,0.848-0.181,1.102C438.991,168.052,438.958,168.072,438.925,168.089z"/>
			</g>
		</g>
		<g>
			<g>
				<path style="fill:#E0E0E0;" d="M452.897,225.725c-0.002-0.004-0.005-0.008-0.006-0.012c-0.213-0.381-0.075-0.862,0.306-1.074
					c0.18-0.102,4.451-2.573,3.89-7.762c-0.047-0.433,0.267-0.823,0.701-0.87c0.433-0.047,0.82,0.266,0.87,0.701
					c0.675,6.247-4.473,9.189-4.693,9.31C453.588,226.229,453.113,226.097,452.897,225.725z"/>
			</g>
			<g>
				<path style="fill:#E0E0E0;" d="M458.211,225.917c-0.194-0.334-0.118-0.768,0.193-1.015c0.087-0.07,2.193-1.816,2.165-5.33
					c-0.003-0.436,0.347-0.792,0.783-0.796c0.435-0.003,0.791,0.347,0.796,0.783c0.035,4.315-2.649,6.491-2.763,6.581
					c-0.342,0.271-0.839,0.213-1.109-0.128C458.251,225.982,458.23,225.95,458.211,225.917z"/>
			</g>
		</g>
		<g>
			<g>
				<path style="fill:#E0E0E0;" d="M366.216,320.985c0.004,0.002,0.009,0.004,0.012,0.007c0.392,0.192,0.552,0.666,0.36,1.057
					c-0.09,0.186-2.196,4.648,1.218,8.596c0.285,0.33,0.249,0.828-0.081,1.114c-0.33,0.285-0.826,0.248-1.114-0.081
					c-4.11-4.753-1.55-10.101-1.439-10.326C365.361,320.964,365.828,320.802,366.216,320.985z"/>
			</g>
			<g>
				<path style="fill:#E0E0E0;" d="M361.737,323.85c0.35,0.165,0.534,0.565,0.418,0.944c-0.031,0.107-0.77,2.742,1.253,5.615
					c0.251,0.356,0.166,0.849-0.191,1.101c-0.356,0.25-0.848,0.165-1.101-0.191c-2.484-3.528-1.515-6.845-1.472-6.984
					c0.127-0.418,0.568-0.652,0.985-0.526C361.668,323.82,361.703,323.834,361.737,323.85z"/>
			</g>
		</g>
	</g>
</g>
<g id="Speech_Bubbles">
	<g id="Speech_Bubble_1_">
		<g id="Speech_Bubble_2_">
			<path id="XMLID_2984_" style="fill:#27DEBF;" d="M307.448,46.448c0-1.712-1.202-3.795-2.685-4.651l-2.187-1.262
				c-1.483-0.856-3.888-0.856-5.371,0l-50.646,29.261c-1.483,0.856-2.686,2.938-2.686,4.651v26.193c0,1.713,1.203,3.795,2.686,4.651
				l2.187,1.263c1.483,0.856,3.888,0.856,5.371,0l50.646-29.262c1.483-0.856,2.685-2.938,2.685-4.651L307.448,46.448z"/>
			<path id="XMLID_1410_" style="opacity:0.5;fill:#FFFFFF;" d="M307.448,46.448c0-1.712-1.202-3.795-2.685-4.651l-2.187-1.262
				c-1.483-0.856-3.888-0.856-5.371,0l-50.646,29.261c-1.483,0.856-2.686,2.938-2.686,4.651v26.193c0,1.713,1.203,3.795,2.686,4.651
				l2.187,1.263c1.483,0.856,3.888,0.856,5.371,0l50.646-29.262c1.483-0.856,2.685-2.938,2.685-4.651L307.448,46.448z"/>
			<path id="XMLID_2867_" style="opacity:0.2;" d="M243.874,100.64c0,1.713,1.202,3.795,2.685,4.651l2.187,1.262
				c1.34,0.774,3.426,0.841,4.912,0.216c-1.264,0.478-2.226-0.235-2.226-1.767l0-26.193c0-0.856,0.301-1.805,0.786-2.647
				l-7.557-4.363c-0.486,0.841-0.786,1.79-0.786,2.646V100.64z"/>
			<path id="XMLID_1411_" style="opacity:0.3;fill:#FFFFFF;" d="M307.36,45.685c-0.313-1.14-1.353-1.503-2.593-0.789l-50.652,29.266
				c-0.739,0.426-1.415,1.152-1.892,2.004l-7.554-4.36c0.489-0.852,1.152-1.579,1.891-2.005L297.2,40.536
				c1.491-0.852,3.896-0.852,5.375,0l2.193,1.265C306.033,42.528,307.097,44.157,307.36,45.685z"/>
			<g>
				<path style="fill:#27DEBF;" d="M251.436,87.277l-0.004-0.003v-0.001l-0.001,0l-7.552-4.367l-9.101,8.76
					c-0.681,0.652-0.431,1.654,0.251,2.045c0.04,0.02,6.966,4.019,7.437,4.29c-0.054-0.04,0.529,0.299,0.995,0.209l7.971-1.534
					l0-9.396L251.436,87.277z"/>
				<path style="opacity:0.5;fill:#FFFFFF;" d="M251.436,87.277l-0.004-0.003v-0.001l-0.001,0l-7.552-4.367l-9.101,8.76
					c-0.681,0.652-0.431,1.654,0.251,2.045c0.04,0.02,6.966,4.019,7.437,4.29c-0.054-0.04,0.529,0.299,0.995,0.209l7.971-1.534
					l0-9.396L251.436,87.277z"/>
				<path style="opacity:0.3;fill:#FFFFFF;" d="M242.466,98.001c-0.471-0.271-2.275-1.313-3.989-2.295
					c-0.18-0.1-0.361-0.21-0.531-0.311c-0.832-0.481-1.594-0.922-2.135-1.233c-0.08-0.05-0.15-0.09-0.21-0.12
					c-0.331-0.191-0.531-0.311-0.571-0.331c-0.681-0.391-0.932-1.393-0.251-2.045l9.101-8.76l7.557,4.37l-9.101,8.75
					C241.704,96.638,241.874,97.56,242.466,98.001z"/>
			</g>
		</g>
		<g id="XMLID_517_">
			<path id="XMLID_1409_" style="fill:#FFFFFF;" d="M266.227,79.231c-1.979,1.143-3.584,3.922-3.584,6.208
				c0,2.286,1.605,3.212,3.584,2.069c1.979-1.143,3.584-3.922,3.584-6.208C269.811,79.015,268.206,78.089,266.227,79.231z"/>
			<path id="XMLID_550_" style="fill:#FFFFFF;" d="M279.44,71.588c-1.979,1.143-3.584,3.922-3.584,6.207
				c0,2.285,1.605,3.212,3.584,2.069c1.979-1.142,3.584-3.922,3.584-6.207C283.024,71.371,281.419,70.445,279.44,71.588z"/>
			<path id="XMLID_537_" style="fill:#FFFFFF;" d="M292.653,63.944c-1.979,1.143-3.584,3.922-3.584,6.208
				c0,2.285,1.605,3.212,3.584,2.069s3.583-3.922,3.584-6.207C296.237,63.727,294.632,62.801,292.653,63.944z"/>
		</g>
	</g>
	<g id="Speech_Bubble_3_">
		<g id="Speech_Bubble_4_">
			<path id="XMLID_3667_" style="fill:#27DEBF;" d="M404.937,97.795l-3.629-6.824l2.92-8.429v-5.16l-8.937,5.16v5.16l3.842,6.655
				c0.065,0.113,0.158,0.186,0.261,0.232l-0.002,0.003L404.937,97.795z"/>
			<path id="XMLID_3663_" style="opacity:0.2;" d="M404.937,97.795l-3.629-6.824l2.92-8.429v-5.16l-8.937,5.16v5.16l3.842,6.655
				c0.065,0.113,0.158,0.186,0.261,0.232l-0.002,0.003L404.937,97.795z"/>
			<path id="XMLID_3662_" style="fill:#27DEBF;" d="M432.088,43.779c0-1.709-1.199-3.786-2.679-4.641l-2.182-1.259
				c-1.479-0.854-3.879-0.854-5.359,0l-50.532,29.196c-1.48,0.854-2.68,2.932-2.68,4.641v26.134c0,1.709,1.2,3.786,2.68,4.641
				l2.182,1.26c1.48,0.854,3.879,0.854,5.359,0l22.026-12.798l3.834,6.641c0.245,0.425,0.876,0.364,1.036-0.099l4.052-11.698
				l19.584-11.242c1.48-0.854,2.679-2.932,2.679-4.641L432.088,43.779z"/>
			<g>
				<path style="fill:#FFFFFF;" d="M383.801,76.775l40.402-23.326c1.196-0.69,2.165-0.2,2.165,1.095s-0.969,2.905-2.165,3.595
					l-40.402,23.325c-1.196,0.69-2.165,0.2-2.165-1.095C381.636,79.075,382.605,77.466,383.801,76.775z"/>
				<path style="fill:#FFFFFF;" d="M383.801,87.174l40.402-23.326c1.196-0.69,2.165-0.2,2.165,1.095
					c0,1.295-0.969,2.905-2.165,3.595l-40.402,23.326c-1.196,0.69-2.165,0.2-2.165-1.095
					C381.636,89.474,382.605,87.865,383.801,87.174z"/>
			</g>
			<path id="XMLID_3661_" style="opacity:0.2;" d="M368.657,97.849c0,1.709,1.2,3.786,2.679,4.641l2.182,1.259
				c1.337,0.772,3.419,0.839,4.901,0.216c-1.261,0.477-2.221-0.235-2.221-1.763l0-26.134c0-0.854,0.3-1.801,0.785-2.641l-7.54-4.353
				c-0.485,0.84-0.785,1.786-0.785,2.641V97.849z"/>
		</g>
		<g id="XMLID_3657_">
			<path id="XMLID_3660_" style="opacity:0.2;fill:#FFFFFF;" d="M432,43.018c-0.313-1.138-1.35-1.5-2.587-0.787l-50.538,29.2
				c-0.737,0.425-1.412,1.15-1.888,2l-7.537-4.35c0.487-0.85,1.15-1.575,1.887-2l50.525-29.2c1.487-0.85,3.887-0.85,5.363,0
				l2.188,1.263C430.675,39.868,431.738,41.493,432,43.018z"/>
		</g>
	</g>
</g>
</svg>
